# xmcd
#
# Track frame offsets:
#	150
#	15622
#	30927
#	49237
#	66734
#	79684
#	97075
#	111577
#	127562
#	143334
#	158997
#	175925
#	196756
#	216912
#	234893
#	260403
#
# Disc length: 3480 seconds
#
# Revision: 2
# Processed by: cddbd v1.5.1PL2 Copyright (c) Steve Scherf et al.
# Submitted via: audiograbber 1.83.01
#
DISCID=d30d9610
DTITLE=Sound Choice - SC8950
DYEAR=1900
DGENRE=Karaoke
TTITLE0=McEntire, Reba  - Greatest Man I Ever Knew, The
TTITLE1=McEntire, Reba  - I'm A Survivor
TTITLE2=McEntire, Reba  - Somebody
TTITLE3=McEntire, Reba  - You Lie
TTITLE4=McEntire, Reba  - How Blue
TTITLE5=McEntire, Reba  - He Gets That From Me
TTITLE6=McEntire, Reba  - Fear Of Being Alone, The
TTITLE7=McEntire, Reba  - Whoever's In New England
TTITLE8=McEntire, Reba and Vince Gill - Heart Won't Lie, The
TTITLE9=McEntire, Reba  - Last One To Know, The
TTITLE10=McEntire, Reba  - What If
TTITLE11=McEntire, Reba  - Fancy
TTITLE12=McEntire, Reba and Linda Davis - Does He Love You
TTITLE13=McEntire, Reba  - Heart Is A Lonely Hunter, The
TTITLE14=McEntire, Reba  - You're The First Time I've Thought About Leaving
TTITLE15=Data - Data Track
EXTD=As Listed In KJ Pro
EXTT0=
EXTT1=
EXTT2=
EXTT3=
EXTT4=
EXTT5=
EXTT6=
EXTT7=
EXTT8=
EXTT9=
EXTT10=
EXTT11=
EXTT12=
EXTT13=
EXTT14=
EXTT15=
PLAYORDER=
